<svg width="22" height="23" viewBox="0 0 22 23" fill="none" xmlns="http://www.w3.org/2000/svg">
<path d="M10.8338 17.098C10.1898 17.098 9.60648 16.9533 9.08381 16.664C8.56114 16.3653 8.12714 15.9407 7.78181 15.39L8.62181 14.452C9.06048 14.9373 9.44314 15.2687 9.76981 15.446C10.0965 15.6233 10.4511 15.712 10.8338 15.712C11.2165 15.712 11.5618 15.628 11.8698 15.46C12.1778 15.292 12.4205 15.0633 12.5978 14.774C12.7845 14.4847 12.8778 14.1627 12.8778 13.808C12.8778 13.4347 12.7891 13.1033 12.6118 12.814C12.4438 12.5153 12.2151 12.282 11.9258 12.114C11.6365 11.9367 11.3098 11.848 10.9458 11.848C10.7685 11.848 10.6005 11.862 10.4418 11.89C10.2831 11.9087 10.0918 11.96 9.86781 12.044C9.64381 12.128 9.34981 12.2587 8.98581 12.436L8.18781 11.358L8.76181 7.2H14.0538V8.6H9.71381L10.0078 8.334L9.54581 11.442L9.19581 11.036C9.28914 10.9427 9.44781 10.854 9.67181 10.77C9.89581 10.6767 10.1431 10.602 10.4138 10.546C10.6938 10.4807 10.9598 10.448 11.2118 10.448C11.8091 10.448 12.3411 10.588 12.8078 10.868C13.2838 11.1387 13.6571 11.5167 13.9278 12.002C14.2078 12.4873 14.3478 13.0427 14.3478 13.668C14.3478 14.312 14.1938 14.8953 13.8858 15.418C13.5778 15.9313 13.1578 16.342 12.6258 16.65C12.0938 16.9487 11.4965 17.098 10.8338 17.098Z" fill="#149954"/>
<path d="M0 5C0 2.23858 2.23858 0 5 0H17C19.7614 0 22 2.23858 22 5V18C22 20.7614 19.7614 23 17 23H5C2.23858 23 0 20.7614 0 18V5Z" fill="#149954" fill-opacity="0.15"/>
</svg>
