<svg width="22" height="23" viewBox="0 0 22 23" fill="none" xmlns="http://www.w3.org/2000/svg">
<path d="M0 5C0 2.23858 2.23858 0 5 0H17C19.7614 0 22 2.23858 22 5V18C22 20.7614 19.7614 23 17 23H5C2.23858 23 0 20.7614 0 18V5Z" fill="#FFE4F2"/>
<path d="M11.0232 17.64C10.3326 17.64 9.73058 17.4813 9.21725 17.164C8.71325 16.8467 8.23725 16.3147 7.78925 15.568L8.96525 14.826C9.19858 15.1713 9.42725 15.456 9.65125 15.68C9.88458 15.8947 10.1226 16.0533 10.3652 16.156C10.6079 16.2587 10.8646 16.31 11.1352 16.31C11.4619 16.31 11.7652 16.2307 12.0452 16.072C12.3252 15.904 12.5492 15.6753 12.7172 15.386C12.8852 15.0967 12.9692 14.77 12.9692 14.406C12.9692 14.042 12.9039 13.734 12.7732 13.482C12.6426 13.2207 12.4512 13.0247 12.1992 12.894C11.9472 12.754 11.6486 12.684 11.3032 12.684C11.1446 12.684 10.9766 12.7027 10.7992 12.74C10.6312 12.768 10.4492 12.8147 10.2532 12.88C10.0572 12.936 9.84258 13.0107 9.60925 13.104L9.18925 11.998L12.2132 8.666L12.5072 9.1H8.33525V7.7H13.9492L14.2292 8.26L11.0232 11.816L10.6732 11.452C10.7479 11.4147 10.8692 11.382 11.0372 11.354C11.2146 11.3167 11.3592 11.298 11.4712 11.298C11.8819 11.298 12.2646 11.3773 12.6192 11.536C12.9832 11.6853 13.2959 11.9 13.5572 12.18C13.8279 12.4507 14.0379 12.7727 14.1872 13.146C14.3459 13.51 14.4252 13.902 14.4252 14.322C14.4252 14.9567 14.2712 15.526 13.9632 16.03C13.6646 16.5247 13.2586 16.9167 12.7452 17.206C12.2319 17.4953 11.6579 17.64 11.0232 17.64Z" fill="#FF0084"/>
</svg>
